<svg id="visual" viewBox="0 0 900 450" width="900" height="450" xmlns="http://www.w3.org/2000/svg" xmlns:xlink="http://www.w3.org/1999/xlink" version="1.1"><rect x="0" y="0" width="900" height="450" fill="#1C4163"></rect><defs><linearGradient id="grad1_0" x1="50%" y1="0%" x2="100%" y2="100%"><stop offset="10%" stop-color="#1c4163" stop-opacity="1"></stop><stop offset="90%" stop-color="#1c4163" stop-opacity="1"></stop></linearGradient></defs><defs><linearGradient id="grad2_0" x1="0%" y1="0%" x2="50%" y2="100%"><stop offset="10%" stop-color="#1c4163" stop-opacity="1"></stop><stop offset="90%" stop-color="#1c4163" stop-opacity="1"></stop></linearGradient></defs><g transform="translate(900, 0)"><path d="M0 225C-31.1 222.4 -62.2 219.7 -85 205.1C-107.7 190.5 -122.2 163.9 -143.5 143.5C-164.9 123.2 -193.1 109 -207.9 86.1C-222.6 63.2 -223.8 31.6 -225 0L0 0Z" fill="#b4bec7"></path></g><g transform="translate(0, 450)"><path d="M0 -225C31.5 -224.2 63 -223.4 86.1 -207.9C109.2 -192.3 124 -161.9 137.9 -137.9C151.8 -113.9 164.9 -96.2 179.2 -74.2C193.6 -52.3 209.3 -26.2 225 0L0 0Z" fill="#b4bec7"></path></g></svg>